<?xml version="1.0" standalone="no"?>
<!DOCTYPE svg PUBLIC "-//W3C//DTD SVG 20010904//EN"
 "http://www.w3.org/TR/2001/REC-SVG-20010904/DTD/svg10.dtd">
<svg version="1.0" xmlns="http://www.w3.org/2000/svg"
 width="179.000000pt" height="134.000000pt" viewBox="0 0 179.000000 134.000000"
 preserveAspectRatio="xMidYMid meet">

<g transform="translate(0.000000,134.000000) scale(0.100000,-0.100000)"
fill="#000000" stroke="none">
<path d="M796 1187 c-51 -106 -148 -206 -256 -262 -41 -21 -98 -61 -125 -89
-49 -49 -105 -143 -105 -176 0 -9 26 -27 66 -46 l65 -31 29 42 c47 69 141 147
240 200 113 60 216 157 278 260 l41 69 -20 22 c-21 23 -118 78 -154 87 -17 5
-26 -7 -59 -76z"/>
<path d="M1075 992 c-68 -109 -193 -218 -335 -293 -70 -37 -158 -116 -184
-167 l-17 -32 39 -48 c22 -26 48 -62 58 -79 10 -18 21 -33 24 -33 3 0 21 28
40 62 47 82 148 172 259 232 99 53 187 127 238 198 l32 45 -25 24 c-14 13 -42
50 -61 82 -20 31 -36 57 -37 57 -1 0 -14 -21 -31 -48z"/>
<path d="M1295 761 c-60 -88 -166 -173 -316 -255 -40 -21 -88 -59 -119 -93
-50 -55 -110 -160 -110 -193 0 -9 19 -28 42 -43 42 -27 126 -63 131 -56 2 2
20 40 41 83 50 103 141 196 246 250 41 22 99 62 127 89 72 68 140 207 102 207
-6 0 -33 11 -61 25 -27 14 -51 25 -52 25 -2 0 -16 -18 -31 -39z"/>
</g>
</svg>
